<?xml version="1.0" encoding="UTF-8"?>
<svg version="1.1" viewBox="0 0 1600 1600" width="1280" height="1280" xmlns="http://www.w3.org/2000/svg">
<path transform="translate(0)" d="m0 0h1600v1600h-1600v-1600z" fill="#FBFCFE"/>
<path transform="translate(0)" d="m0 0h1600v1600h-1600v-1600zm902 76c-1.24 0.761-2.48 1.52-3.72 2.28-2.12 1.3-4.24 2.61-6.35 3.93-2.65 1.62-5.33 3.16-8.03 4.69-3.61 2.09-7.16 4.29-10.7 6.47-1.61 0.986-3.22 1.97-4.83 2.96l-2.31 1.41c-5.81 3.55-11.7 7.02-17.5 10.5-16.1 9.44-32.1 19-48 28.8-7.96 4.88-16 9.67-24 14.5-2.55 1.53-5.11 3.06-7.66 4.6-8.55 5.14-17.1 10.3-25.7 15.3-4.14 2.42-8.24 4.91-12.3 7.44-6.8 4.19-13.7 8.28-20.5 12.3-14.5 8.53-14.5 8.53-28.8 17.3-7.92 4.9-16 9.5-24.1 14.1-5.61 3.21-11.1 6.51-16.4 10.2-2.72 1.81-5.54 3.41-8.39 4.99-5.6 3.15-11.1 6.44-16.6 9.81-5.39 3.32-10.8 6.58-16.3 9.69-5.49 3.1-10.9 6.36-16.2 9.68-3.91 2.42-7.88 4.74-11.8 7.07-7.21 4.22-14.4 8.5-21.5 12.8-4.02 2.42-8.05 4.84-12.1 7.25-1.71 1.02-3.41 2.05-5.12 3.07l-25.2 15.1c-1.09 0.655-1.09 0.655-2.21 1.32-1.6 0.96-3.2 1.92-4.8 2.88-4.09 2.45-8.17 4.9-12.3 7.36-9.82 5.91-19.7 11.8-29.5 17.6-7.07 4.17-14.1 8.38-21.1 12.6-2.97 1.79-5.95 3.57-8.93 5.36-4.14 2.49-8.29 4.97-12.4 7.46-9.86 5.93-19.7 11.8-29.7 17.6-4.84 2.85-9.65 5.74-14.4 8.7-6.02 3.74-12.2 7.27-18.3 10.8-5.64 3.25-11.2 6.62-16.7 10.1-3.75 2.3-7.54 4.54-11.3 6.76-6.23 3.65-12.4 7.34-18.6 11.1-7.19 4.32-14.4 8.61-21.6 12.9-11 6.5-11 6.5-22 13.1-2.72 1.65-5.46 3.25-8.21 4.84-27.5 16.1-35.5 36.5-43.5 66.4-0.631 2.51-1.26 5.01-1.88 7.52-2.34 9.5-4.95 18.9-7.56 28.4-0.47 1.7-0.939 3.4-1.41 5.11-1.16 4.2-2.32 8.39-3.48 12.6-0.655 2.37-1.31 4.73-1.96 7.1-2.6 9.4-5.26 18.8-7.96 28.2-3.53 12.3-6.98 24.6-10.3 36.9-2.78 10.4-5.69 20.8-8.61 31.1-0.854 3.04-1.7 6.08-2.55 9.12-2.81 10.1-5.67 20.2-8.61 30.2-4.49 15.3-8.72 30.7-12.8 46.2-0.669 2.54-1.34 5.07-2.02 7.6-0.273 1.02-0.273 1.02-0.552 2.05-0.511 1.9-1.02 3.8-1.54 5.7-0.971 3.77-1.65 7.29-1.82 11.2-0.0773 1.63-0.0773 1.63-0.156 3.29-0.556 22.4 7.25 39 20.2 56.7 1.34 1.99 2.68 3.99 4 6 3.16 4.76 6.39 9.46 9.65 14.1 3.86 5.57 7.61 11.2 11.4 16.9 1.62 2.44 3.25 4.88 4.88 7.31 0.852 1.28 1.7 2.55 2.55 3.83l5.08 7.62c0.388 0.582 0.776 1.16 1.18 1.76 0.83 1.24 1.66 2.49 2.49 3.73 2.04 3.06 4.08 6.13 6.13 9.19 3.88 5.82 7.76 11.6 11.6 17.5 9.31 14 18.6 28 28.1 41.9 5.75 8.4 11.4 16.9 17 25.3 3.34 5.04 6.73 10 10.2 15 5.21 7.5 10.3 15.1 15.3 22.7 2.06 3.1 4.12 6.19 6.19 9.29 3.02 4.52 6.03 9.05 9.04 13.6 6.38 9.59 12.8 19.2 19.3 28.6 3.29 4.77 6.44 9.61 9.57 14.5 3.55 5.54 7.24 10.9 11.2 16.2 4.41 6.12 8.51 12.5 12.7 18.8 2.19 3.31 4.4 6.62 6.6 9.92 0.818 1.23 1.64 2.45 2.45 3.68l1.21 1.82c3.63 5.45 3.63 5.45 4.85 7.28 0.819 1.23 1.64 2.46 2.46 3.69 2.32 3.48 4.64 6.96 6.95 10.4 4.66 7.02 9.34 14 14.2 20.9 3.5 5.03 6.87 10.2 10.3 15.3 2.82 4.25 5.66 8.49 8.49 12.7 6.75 10.1 6.75 10.1 9.52 14.3 5.27 7.94 10.6 15.8 16 23.7 6.22 9.13 12.4 18.3 18.5 27.5 5.69 8.58 11.4 17.1 17.2 25.6 7.88 11.5 15.6 23.1 23.3 34.8 5.78 8.7 11.6 17.4 17.5 26 4.02 5.83 7.95 11.7 11.9 17.6 1.5 2.25 3 4.5 4.5 6.75 3.15 4.73 6.3 9.46 9.45 14.2 1.41 2.12 2.83 4.25 4.24 6.37 0.665 1 1.33 2 2.02 3.04 3.7 5.55 7.46 11 11.3 16.5 1.7 2.44 3.3 4.93 4.87 7.46 2.9 4.61 5.96 9.1 9.08 13.6 4.21 6.05 8.29 12.2 12.4 18.3 1.81 2.73 3.62 5.45 5.44 8.17 0.648 0.973 1.3 1.95 1.96 2.95 1.07 1.61 2.15 3.22 3.23 4.82 2.4 3.57 4.76 7.17 7.06 10.8 14.5 22.8 31.5 40.7 58.6 47.4 34.7 7.57 59-3.61 87.9-21.5 4.31-2.67 8.66-5.26 13-7.86 2.29-1.37 4.58-2.75 6.88-4.12 4.36-2.62 8.72-5.23 13.1-7.84 7.37-4.41 14.7-8.83 22-13.3 4.75-2.94 9.54-5.78 14.4-8.58 11.8-6.84 23.5-13.8 35.1-21 5.76-3.54 11.6-6.94 17.4-10.4 6.12-3.61 12.2-7.28 18.2-11 3.91-2.4 7.88-4.69 11.9-6.99 3.09-1.82 6.15-3.69 9.2-5.58 8.58-5.31 17.3-10.4 26-15.5 10.5-6.13 10.5-6.13 20.9-12.5 6.2-3.85 12.5-7.52 18.8-11.2 8.36-4.86 16.7-9.77 25-14.8 2.54-1.53 5.09-3.06 7.63-4.58 8.91-5.33 17.8-10.7 26.7-16.1 0.596-0.363 1.19-0.726 1.81-1.1 1.2-0.732 2.4-1.46 3.61-2.2 10-6.09 20-12.1 30.2-17.9 4.78-2.75 9.52-5.59 14.2-8.44 3.33-2.01 6.69-3.97 10.1-5.89 3.84-2.21 7.62-4.51 11.4-6.79 1.79-1.07 3.57-2.15 5.36-3.22 0.874-0.526 1.75-1.05 2.65-1.59 3.43-2.06 6.87-4.13 10.3-6.19 3.56-2.13 7.12-4.27 10.7-6.41 8.44-5.08 16.9-10.1 25.4-15.1 5.22-3.08 10.4-6.17 15.6-9.3 6.98-4.2 14-8.34 21-12.5 7.23-4.27 14.4-8.59 21.6-12.9 5.3-3.19 10.6-6.32 16-9.43 5.19-3.03 10.3-6.14 15.5-9.23 4.96-2.98 9.93-5.96 14.9-8.94 8.34-5 8.34-5 16.7-10 13.1-7.87 26.2-15.7 39.4-23.3 3.87-2.25 7.69-4.57 11.5-6.94 6.3-3.9 12.7-7.61 19.1-11.3 8.83-5.09 17.5-10.4 26.2-15.7 2.58-1.58 5.18-3.09 7.81-4.58 34.4-19.5 42.7-47.4 52.8-83.6 1.1-3.96 2.21-7.92 3.31-11.9 0.274-0.985 0.549-1.97 0.832-2.98 4.3-15.4 8.79-30.7 13.3-46.1 0.541-1.86 1.08-3.72 1.62-5.58 2.67-9.2 5.36-18.4 8.07-27.6 0.581-1.97 1.16-3.95 1.74-5.92 0.406-1.38 0.812-2.75 1.22-4.13 2.98-10.1 5.93-20.2 8.87-30.4 0.345-1.19 0.691-2.38 1.05-3.61 1.72-5.93 3.44-11.9 5.15-17.8 3.56-12.3 7.22-24.5 11-36.7 3.13-10.1 6.06-20.3 8.94-30.6 2.94-10.4 5.89-20.8 9.22-31.1 5.64-17.5 6.71-32.8-1.84-49.6-3.51-6.54-7.7-12.5-12.2-18.4-2.14-2.87-4.21-5.8-6.28-8.72-0.836-1.17-1.67-2.34-2.51-3.51-0.619-0.867-0.619-0.867-1.25-1.75-1.22-1.71-2.45-3.42-3.67-5.13-7.79-10.9-15.5-21.8-23.2-32.8-2.62-3.75-5.27-7.47-7.94-11.2-8.53-11.9-16.9-23.9-25.2-36-5.99-8.74-12.2-17.4-18.4-25.9-5.73-7.9-11.4-15.8-16.9-23.9-3.49-5.12-7.07-10.2-10.7-15.2-1.77-2.45-3.41-4.87-4.92-7.5-0.443-0.695-0.887-1.39-1.34-2.11h-2l-0.789-2.2c-1.25-2.89-2.69-5.04-4.59-7.55-3.63-4.89-7.18-9.83-10.7-14.8-0.52-0.737-1.04-1.47-1.57-2.23-2.71-3.85-5.42-7.71-8.11-11.6-2.28-3.27-4.61-6.49-6.96-9.71-4.14-5.69-8.16-11.4-12.2-17.2-7.18-10.4-14.4-20.6-21.9-30.8-5.62-7.7-11-15.5-16.5-23.4-2.38-3.41-4.77-6.82-7.16-10.2-1.58-2.26-3.15-4.52-4.72-6.78-3.97-5.68-8.05-11.3-12.1-16.9-3.38-4.68-6.73-9.38-10-14.1-2.22-3.18-4.48-6.33-6.74-9.48-3.38-4.72-6.73-9.45-10-14.2-1.52-2.18-3.06-4.35-4.59-6.52-4.84-6.82-9.64-13.7-14.3-20.6-5.02-7.4-10.2-14.6-15.7-21.6-3.99-5.2-7.64-10.6-11.3-16.1-4.2-6.07-8.49-12.1-12.8-18-7.78-10.7-15.4-21.5-22.9-32.4-3.6-5.21-7.36-10.3-11.2-15.3-4.82-6.39-9.46-12.9-14-19.5-8.26-12.1-16.7-24.1-25.3-36-5.67-7.82-11.3-15.7-16.7-23.7-3.93-5.75-8.01-11.4-12.1-17-4.8-6.62-9.5-13.3-14.2-20-2.94-4.21-5.9-8.4-8.94-12.5-3.49-4.76-6.81-9.62-10.1-14.5-8.38-12.3-16.9-24.6-26.3-36.1-1.49-1.85-1.49-1.85-3.49-4.85h-2v-2c-7.22-6.4-15.2-11.1-24-15l-1.97-0.926c-30.3-13-61.7-2.38-88 13.9z" fill="#000102"/>
<path transform="translate(250,488)" d="m0 0c0.495 1.49 0.495 1.49 1 3-0.985 1.34-1.99 2.68-3 4-6.73 20.4-4.3 39.9 4.89 58.9 2.67 5.29 5.71 10.3 9.11 15.1 0.507 0.732 1.01 1.46 1.54 2.22 1.1 1.58 2.21 3.15 3.32 4.72 3.47 4.95 6.86 9.94 10.3 14.9 2.74 4.02 5.51 8.02 8.31 12 3.84 5.47 7.51 11 11.2 16.6 5.51 8.32 11.2 16.5 17.1 24.5 3.44 4.71 6.64 9.5 9.7 14.5 2.41 3.76 5.07 7.32 7.72 10.9 2.14 2.93 4.14 5.93 6.14 8.96 2.34 3.51 4.73 6.98 7.13 10.4 3.19 4.62 6.35 9.25 9.44 13.9 4.23 6.38 8.64 12.6 13 18.9 3.89 5.54 7.7 11.1 11.4 16.8 2.25 3.38 4.6 6.7 6.94 10 1.97 2.83 3.88 5.69 5.78 8.56 4.1 6.18 8.35 12.3 12.6 18.3 3.45 4.89 6.8 9.83 10.1 14.8 4.37 6.59 8.83 13.1 13.3 19.6 3.2 4.64 6.37 9.28 9.55 13.9 3.71 5.43 7.43 10.8 11.2 16.2 2.73 3.93 5.42 7.89 8.06 11.9 3.46 5.22 7 10.4 10.6 15.5 4.75 6.9 9.47 13.8 14.2 20.7 3.57 5.25 7.19 10.5 10.8 15.7 1.89 2.72 3.73 5.46 5.55 8.23 2.95 4.44 5.96 8.83 9.03 13.2 2.95 4.22 5.86 8.47 8.78 12.7 2.95 4.29 5.91 8.58 8.88 12.9 3.54 5.1 6.99 10.2 10.4 15.4 1.77 2.64 3.57 5.24 5.4 7.83 4.64 6.59 9.07 13.3 13.5 20 3.2 4.83 6.43 9.6 9.87 14.3 3.6 4.9 6.99 9.92 10.3 15 3.48 5.25 7.05 10.4 10.6 15.6 2.04 2.95 4.03 5.93 6.02 8.91 4.49 6.77 9.1 13.5 13.7 20.1 4.15 6.01 8.28 12 12.4 18.1 0.524 0.762 1.05 1.52 1.59 2.31 5.59 8.13 11.2 16.3 16.6 24.5 3.57 5.39 7.27 10.7 11.1 15.9 3.53 4.9 6.88 9.91 10.2 14.9 2.88 4.35 5.83 8.63 8.84 12.9 1.88 2.7 3.7 5.44 5.51 8.19 2.99 4.51 6.08 8.93 9.25 13.3 2.9 4.01 5.69 8.05 8.31 12.2 16.3 26.1 33.2 47.4 64.2 55.2 0.802 0.168 1.6 0.335 2.43 0.508 1.27 0.277 1.27 0.277 2.57 0.559 5.04 0.649 10 0.626 15.1 0.629 1.03 0.0122 2.05 0.0245 3.11 0.0371 15.8 0.0299 27.7-4.56 41.2-12.2 1.39-0.764 2.77-1.53 4.16-2.29 5.29-2.94 10.5-6 15.7-9.08 1.37-0.808 1.37-0.808 2.78-1.63 4.62-2.73 9.2-5.51 13.7-8.41 6.2-3.97 12.5-7.72 18.9-11.5 2.41-1.42 4.81-2.84 7.21-4.26 0.579-0.342 1.16-0.684 1.76-1.04 4.21-2.49 8.41-4.99 12.6-7.51 7.06-4.25 14.2-8.44 21.3-12.6 6-3.54 12-7.1 17.9-10.7 1.24-0.746 2.49-1.49 3.73-2.24 0.568-0.341 1.14-0.681 1.72-1.03 20.8-12.5 20.8-12.5 22.6-13.6 1.41-0.847 2.82-1.7 4.23-2.54 7.14-4.29 14.3-8.53 21.5-12.8 6.09-3.59 12.2-7.21 18.2-10.9 0.632-0.38 1.26-0.761 1.91-1.15 0.576-0.347 1.15-0.694 1.75-1.05 6.63-3.99 13.3-7.95 20-11.9 4.95-2.9 9.87-5.84 14.8-8.88 6.08-3.77 12.3-7.35 18.5-10.9 6.82-3.93 13.6-7.96 20.3-12 3.21-1.94 6.43-3.86 9.65-5.79 1.26-0.754 2.51-1.51 3.77-2.26 8.42-5.05 8.42-5.05 10.8-6.5 1.86-1.12 3.72-2.24 5.59-3.36 21-12.6 42.1-25.2 63.3-37.4 7.26-4.18 14.5-8.43 21.6-12.9 9.52-5.89 19.2-11.6 28.8-17.2 6.44-3.78 12.8-7.62 19.3-11.5 4.02-2.42 8.05-4.84 12.1-7.25 6.92-4.15 6.92-4.15 13.8-8.31 8.38-5.04 16.8-10 25.2-15 6.8-4.01 13.6-8.07 20.4-12.1 5.81-3.5 11.7-6.94 17.5-10.4 15.6-9.16 31.1-18.4 46.6-27.7 4.5-2.71 9.02-5.39 13.6-8.04 5.8-3.4 11.6-6.82 17.3-10.4 5.24-3.25 10.5-6.36 15.9-9.44 0.808-0.466 1.62-0.933 2.45-1.41 1.63-0.942 3.27-1.88 4.9-2.83 23-12.9 23-12.9 43.4-29.4l2.06-1.95c10.4-11 14.8-25.5 15.6-40.2 0.188-1.39 0.188-1.39 0.379-2.8 0.66-0.33 1.32-0.66 2-1 6.3 21.3-5.64 49.4-12.5 69.3-2.08 6.18-3.81 12.5-5.59 18.7-0.657 2.32-1.32 4.64-1.98 6.96-1.12 3.93-2.23 7.85-3.35 11.8-4.54 16-9.1 32-13.9 47.9-1.97 6.5-3.92 13-5.86 19.5-0.596 1.99-1.19 3.99-1.79 5.98-3.76 12.5-7.44 25.1-10.8 37.8-2.07 7.65-4.34 15.2-6.69 22.8-2.29 7.4-4.42 14.8-6.53 22.3-0.654 2.29-1.31 4.57-1.96 6.86-3.39 11.8-6.76 23.6-10 35.5-4.87 17.6-10.3 33.1-25 44.6-0.763 0.619-1.53 1.24-2.31 1.88-8.71 6.7-18.4 12-27.9 17.5-4.19 2.45-8.34 4.95-12.5 7.46-8.02 4.83-16.1 9.61-24.1 14.4-9.42 5.57-18.8 11.2-28.2 16.8-2.6 1.56-5.21 3.13-7.81 4.69-1.25 0.75-2.5 1.5-3.75 2.25-8.75 5.25-8.75 5.25-11 6.58-1.55 0.933-3.11 1.87-4.66 2.8-6.88 4.13-13.8 8.22-20.7 12.3-8.16 4.83-16.3 9.67-24.4 14.6-11.4 6.87-22.9 13.6-34.4 20.4-11.6 6.81-23.1 13.7-34.6 20.6-7.92 4.76-15.9 9.48-23.8 14.2-10.1 6-20.3 12-30.3 18.1-5.58 3.37-11.2 6.64-16.9 9.89-6.58 3.79-13.1 7.66-19.5 11.7-7.73 4.78-15.6 9.39-23.4 14-0.946 0.559-1.89 1.12-2.87 1.69-4.83 2.85-9.67 5.71-14.5 8.56-11.4 6.71-22.7 13.5-34.1 20.3-1.64 0.987-3.29 1.97-4.93 2.96-4.32 2.59-8.63 5.2-12.9 7.88-7.87 4.86-15.9 9.44-23.9 14-6.06 3.47-12 7.06-17.9 10.8-4.53 2.86-9.17 5.52-13.8 8.2-15.1 8.74-30.1 17.6-44.9 26.8-9.99 6.18-20.2 12.1-30.4 17.9-3.94 2.24-7.82 4.53-11.6 7-7.39 4.78-15 9.17-22.6 13.6-5.15 3.03-10.3 6.1-15.4 9.18-1.67 1-3.33 2-5 3-0.831 0.499-1.66 0.998-2.52 1.51-7.17 4.3-7.17 4.3-9.7 5.82-1.97 1.18-3.93 2.37-5.9 3.55-62.9 38-62.9 38-95.7 31.3-14.5-3.62-29.1-11.1-40.2-21.2v-2l-1.71-0.641c-3.05-1.81-4.84-4.3-6.91-7.11-0.434-0.578-0.868-1.16-1.31-1.75-1.36-1.83-2.71-3.66-4.06-5.5-0.416-0.563-0.832-1.13-1.26-1.71-5.43-7.37-10.5-14.9-15.4-22.6-3.96-6.18-8.09-12.2-12.3-18.3-4.16-6.05-8.25-12.1-12.3-18.3-4.51-6.79-9.08-13.5-13.7-20.2-3.4-4.92-6.7-9.91-10-14.9-1.69-2.54-3.37-5.08-5.06-7.62-0.427-0.642-0.854-1.28-1.29-1.95-2.36-3.53-4.75-7.03-7.21-10.5-3.18-4.5-6.14-9.12-9.1-13.8-2.72-4.25-5.55-8.39-8.47-12.5-2.27-3.26-4.48-6.55-6.68-9.86-0.428-0.643-0.855-1.29-1.3-1.95-1.69-2.55-3.38-5.1-5.07-7.65-5.38-8.11-10.8-16.2-16.3-24.2-5.44-7.96-10.8-16-16.2-24-2.65-3.99-5.3-7.96-7.96-11.9-3.86-5.79-7.73-11.6-11.6-17.4-0.705-1.06-1.41-2.12-2.14-3.21-1.36-2.04-2.71-4.08-4.06-6.11-2.91-4.38-5.85-8.73-8.88-13-5.56-7.89-10.8-16-16.2-24-4.96-7.47-9.93-14.9-15.1-22.3-1.99-2.84-3.91-5.72-5.82-8.61-4.65-7.02-9.38-14-14.1-20.9-5.1-7.48-10.2-15-15.2-22.5-2.54-3.82-5.13-7.59-7.76-11.3-4.01-5.76-7.82-11.6-11.6-17.5-3-4.66-6.09-9.23-9.3-13.7-2.9-4.13-5.67-8.35-8.46-12.6-2.35-3.54-4.71-7.08-7.07-10.6-1.04-1.56-2.08-3.12-3.12-4.69-0.508-0.762-1.02-1.52-1.54-2.31-3.96-5.94-3.96-5.94-5.15-7.73-0.793-1.19-1.59-2.38-2.38-3.57-2.43-3.64-4.85-7.29-7.28-10.9-5.71-8.59-11.4-17.2-17.3-25.6-4.94-7.16-9.74-14.4-14.5-21.7-4.22-6.34-8.49-12.6-12.8-18.9-3.38-4.88-6.65-9.84-9.93-14.8-1.58-2.38-3.17-4.75-4.75-7.12-0.852-1.28-1.7-2.55-2.55-3.83-0.438-0.657-0.876-1.31-1.33-1.99-4.25-6.38-4.25-6.38-5.74-8.6-1.01-1.52-2.02-3.04-3.04-4.55-2.5-3.75-5-7.51-7.5-11.3-6.17-9.29-12.4-18.5-18.7-27.7-3.47-5.09-6.89-10.2-10.2-15.4-3.36-5.3-6.93-10.4-10.6-15.5-2.99-4.15-5.77-8.38-8.47-12.7-1.76-2.75-3.57-5.46-5.41-8.16-6.63-9.74-13.1-19.3-17.7-30.1-0.356-0.794-0.712-1.59-1.08-2.41-5.66-15-1.25-31.5 3.09-46.2 1.09-3.73 2.14-7.47 3.18-11.2 2.7-9.71 5.44-19.4 8.22-29.1 3.28-11.5 6.52-22.9 9.71-34.4 3.69-13.3 7.39-26.5 11.2-39.8 5.37-18.7 10.6-37.5 15.7-56.3 2.99-11 6.09-22 9.25-33 1.78-6.2 3.5-12.4 5.11-18.7 2.21-8.54 4.57-17 6.96-25.5 0.436-1.55 0.869-3.09 1.3-4.64 6.08-21.8 6.08-21.8 11.4-29.8h2c0.464-1.21 0.464-1.21 0.938-2.44 1.06-2.56 1.06-2.56 2.06-3.56z" fill="#000102"/>
<path transform="translate(1065 344)" d="m0 0c6.58 4.54 10.8 11.8 15 18.4 4.3 6.52 8.65 13 13.2 19.4 2.52 3.59 5.02 7.2 7.51 10.8 2.29 3.3 4.59 6.6 6.9 9.88 2.39 3.4 4.71 6.84 7 10.3 5.41 8.15 11.1 16.1 16.7 24.1 2.92 4.16 5.83 8.32 8.75 12.5 1.17 1.67 2.33 3.33 3.5 5 7 10 7 10 8.75 12.5 1.16 1.66 2.33 3.31 3.5 4.96 14.9 21 14.9 21 13.2 33.5-3.62 8.49-10.5 12.1-18.1 16.8-1.16 0.71-2.32 1.42-3.48 2.13-0.582 0.356-1.16 0.712-1.76 1.08-1.56 0.955-3.11 1.92-4.66 2.88-7.91 4.91-15.9 9.64-23.9 14.4-6.16 3.63-12.3 7.32-18.4 11.1-3.39 2.09-6.8 4.15-10.2 6.19-6.17 3.69-12.3 7.39-18.5 11.1-36.3 21.9-36.3 21.9-50 20.4-11.1-3.81-18.3-17.6-24.1-27.1-2.19-3.38-4.54-6.61-6.95-9.85-9.2-12.4-17.9-25.1-26.6-37.9-4.36-6.41-8.82-12.7-13.4-18.9-3.73-5.01-7.3-10.1-10.9-15.2-1.17-1.67-2.33-3.33-3.5-5-7-10-7-10-8.73-12.5-1.23-1.75-2.45-3.5-3.68-5.24-0.93-1.32-0.93-1.32-1.88-2.67-0.56-0.794-1.12-1.59-1.7-2.41-2.04-2.99-3.82-6.01-5.51-9.21-0.433-0.784-0.866-1.57-1.31-2.38-1.25-4.78-0.756-9.32 1.32-13.8 8.03-13.4 23.5-20 36.6-27.6 5.15-3.03 10.3-6.1 15.4-9.18 1.55-0.93 3.1-1.86 4.65-2.79 2.44-1.47 4.88-2.93 7.33-4.4 4.34-2.61 8.68-5.21 13-7.8 8.61-5.14 17.2-10.3 25.7-15.6 38.3-23.7 38.3-23.7 49.3-17.8z" fill="#000102"/>
<path transform="translate(661 585)" d="m0 0c8.14 5.79 13.1 14.8 18.5 23 2.2 3.33 4.45 6.62 6.71 9.9 0.679 0.987 0.679 0.987 1.37 1.99 3.44 4.99 6.94 9.94 10.4 14.9 4.01 5.66 7.93 11.4 11.8 17.2 4.27 6.42 8.67 12.7 13.1 19.1 0.415 0.601 0.829 1.2 1.26 1.82 3.69 5.34 7.39 10.7 11.1 16 3.49 4.97 6.92 9.99 10.4 15 3.16 4.6 6.38 9.15 9.65 13.7 10.2 14.3 10.2 14.3 10.6 19.5 0.103 1.26 0.206 2.52 0.312 3.81-0.103 5.47-2.13 9.78-5.79 13.8-3.87 3.51-8.24 6.14-12.7 8.76-3 1.74-5.95 3.55-8.91 5.37-1.09 0.674-2.19 1.35-3.32 2.04-2.51 1.56-5.02 3.12-7.52 4.7-7.93 4.99-15.9 9.83-24 14.5-10.9 6.33-21.6 12.8-32.3 19.4-9.67 6.04-19.4 12-29.2 17.8-0.783 0.457-1.57 0.915-2.37 1.39-7.53 4.35-13.3 6.51-22.1 5.43-9.37-2.53-14.7-11.5-20-19-0.408-0.569-0.816-1.14-1.24-1.72-3.97-5.57-7.75-11.3-11.5-17-3.92-5.92-8.08-11.7-12.3-17.4-3.57-4.92-7.07-9.89-10.5-14.9-3.81-5.59-7.71-11.1-11.7-16.6-6.39-8.8-12.6-17.7-18.8-26.7-2.64-3.81-5.29-7.6-7.97-11.4-0.629-0.89-1.26-1.78-1.91-2.7-1.18-1.66-2.35-3.32-3.54-4.98-11.7-16.5-11.7-16.5-10.6-24.7 2.85-8.76 7.28-14.2 15-19 0.847-0.527 0.847-0.527 1.71-1.07 3.82-2.36 7.68-4.66 11.6-6.92 2.26-1.32 4.5-2.67 6.73-4.02 0.789-0.473 1.58-0.946 2.39-1.43 1.93-1.16 3.85-2.32 5.78-3.48 8.6-5.18 17.2-10.3 25.9-15.4 11.7-6.84 11.7-6.84 23.1-14 4.48-2.87 9-5.64 13.6-8.38 0.614-0.368 1.23-0.737 1.86-1.12 2.96-1.77 5.93-3.51 8.94-5.21 4.47-2.57 8.81-5.33 13.2-8.08 7.89-4.57 14.6-6.68 23.5-3.9z" fill="#000102"/>
<path transform="translate(1070 739)" d="m0 0c4.59 2.99 7.54 7.29 9.25 12.4 0.646 7.15 0.807 14.2-4 20-0.686 0.338-1.37 0.675-2.08 1.02-2.28 0.874-2.28 0.874-2.92 3.98-1.74 1.32-1.74 1.32-4.02 2.64-0.832 0.49-1.66 0.981-2.52 1.49-0.895 0.516-1.79 1.03-2.71 1.56-1.85 1.09-3.7 2.17-5.55 3.26-0.9 0.526-1.8 1.05-2.73 1.6-3.02 1.78-6 3.61-8.97 5.46-9.65 5.97-19.4 11.8-29.1 17.6-4.39 2.63-8.77 5.28-13.1 7.99-5.87 3.62-11.8 7.13-17.8 10.6-8.43 4.95-16.8 10-25.1 15.2-5.27 3.28-10.6 6.54-15.9 9.74-0.585 0.354-1.17 0.708-1.77 1.07-8.34 5-14 6.84-23.8 5.8-10.1-2.63-15.4-12.4-20.7-20.5-2.63-4.01-5.4-7.93-8.17-11.8-0.764-1.08-0.764-1.08-1.54-2.19-2.46-3.47-4.93-6.92-7.43-10.4-12-16.5-12-16.5-11.6-25.6 0.955-5.4 3.46-8.82 7.64-12.3 5.8-3.91 10.9-5.51 17.8-4.17 8.31 3.38 12.9 10.4 17.9 17.6 5.15 7.18 10.6 13.2 19.6 14.9 14.2 0.761 26.3-8.77 37.7-16.1 4.2-2.69 8.5-5.18 12.8-7.66 4.32-2.53 8.58-5.17 12.8-7.8 5.15-3.18 10.3-6.28 15.6-9.37 4.29-2.56 8.53-5.16 12.7-7.86 9.71-6.21 19.6-12.3 29.8-17.7 0.825-0.433 1.65-0.866 2.5-1.31 5.2-1.43 10.4-1.61 15.2 0.875z" fill="#000102"/>
</svg>
