<svg width="1599.9999999999998" height="1599.9999999999998" xmlns="http://www.w3.org/2000/svg" version="1.1">

 <g>
  <title>Layer 1</title>
  <path id="svg_1" fill="#ffff"/>
  <path id="svg_3" fill="#ffff" d="m250,488c0.495,1.48999 0.495,1.48999 1,3c-0.985,1.34 -1.99001,2.67999 -3,4c-6.73,20.40002 -4.3,39.90002 4.89,58.90002c2.67,5.28998 5.71001,10.29999 9.11,15.09998c0.50699,0.73199 1.01001,1.46002 1.54001,2.21997c1.10001,1.58002 2.20999,3.15002 3.31998,4.72003c3.47,4.95001 6.86002,9.94 10.30002,14.90002c2.73999,4.01996 5.50998,8.01996 8.31,12c3.84,5.46997 7.51001,11 11.19998,16.59998c5.51001,8.32001 11.20001,16.5 17.10001,24.5c3.44,4.71002 6.64001,9.5 9.70001,14.5c2.41,3.76001 5.07001,7.32001 7.72,10.89996c2.14001,2.93005 4.14001,5.93005 6.14001,8.96002c2.33997,3.51001 4.72998,6.97998 7.12997,10.40002c3.19,4.62 6.35001,9.25 9.44,13.90002c4.23001,6.37994 8.64001,12.59998 13,18.89996c3.89001,5.53998 7.70001,11.10004 11.40002,16.79999c2.24997,3.38 4.59998,6.70001 6.94,10c1.97,2.83002 3.87997,5.69 5.78,8.56c4.09998,6.18005 8.34998,12.30005 12.59998,18.30005c3.45001,4.88995 6.79999,9.82996 10.10001,14.79999c4.37,6.58997 8.82999,13.09998 13.30002,19.59998c3.19998,4.64001 6.37,9.28003 9.54999,13.90002c3.70999,5.42999 7.42999,10.79999 11.19998,16.20001c2.73001,3.92993 5.42001,7.88995 8.06003,11.89996c3.45999,5.21997 7,10.40002 10.59998,15.5c4.75,6.90002 9.47,13.79999 14.20001,20.70001c3.57001,5.25 7.19,10.5 10.79999,15.70001c1.89001,2.71997 3.73001,5.46002 5.54999,8.22998c2.95001,4.44 5.96002,8.82996 9.03003,13.20001c2.94998,4.21997 5.85999,8.46997 8.78003,12.69995c2.94995,4.29004 5.90997,8.58002 8.88,12.90002c3.53992,5.09998 6.98999,10.20001 10.39996,15.40002c1.77002,2.63995 3.57001,5.23999 5.40002,7.82996c4.63995,6.59003 9.07001,13.30005 13.49994,20c3.20001,4.83002 6.43005,9.60004 9.87006,14.30005c3.59998,4.89996 6.98993,9.91998 10.29999,15c3.47998,5.25 7.04999,10.3999 10.59998,15.59998c2.03998,2.94995 4.02997,5.93005 6.02002,8.91003c4.48999,6.77002 9.09998,13.5 13.70001,20.09998c4.14996,6.01001 8.27997,12 12.39996,18.09998c0.52405,0.76196 1.05005,1.52002 1.59003,2.30994c5.59003,8.13013 11.20001,16.30017 16.59998,24.5c3.57001,5.39001 7.27002,10.70007 11.10004,15.90002c3.52997,4.90015 6.88,9.91003 10.19995,14.90015c2.88,4.34998 5.83002,8.62988 8.84003,12.8999c1.88,2.70007 3.70001,5.43994 5.51001,8.18994c2.98999,4.51013 6.07996,8.93005 9.25,13.30005c2.90002,4.01001 5.69,8.05005 8.31,12.19995c16.29999,26.1001 33.20001,47.40015 64.20001,55.20007c0.80194,0.16797 1.59998,0.33508 2.42999,0.50806c1.27002,0.27686 1.27002,0.27686 2.57001,0.55896c5.03998,0.64893 10,0.62598 15.09998,0.62891c1.03003,0.01233 2.04999,0.02466 3.10999,0.03723c15.79999,0.02991 27.70001,-4.56006 41.20001,-12.20007c1.39001,-0.76392 2.77002,-1.52991 4.16003,-2.29004c5.28998,-2.93994 10.5,-6 15.69995,-9.07996c1.37,-0.80798 1.37,-0.80798 2.78003,-1.63c4.62,-2.72998 9.20001,-5.51001 13.70001,-8.41003c6.19995,-3.96997 12.5,-7.71997 18.89996,-11.49988c2.41003,-1.42004 4.81,-2.84009 7.21002,-4.26001c0.57898,-0.34204 1.15997,-0.68408 1.76001,-1.04004c4.20996,-2.48999 8.40997,-4.98999 12.59998,-7.51001c7.06,-4.25 14.20001,-8.43994 21.29999,-12.6001c6,-3.53992 12,-7.09985 17.90002,-10.69983c1.23999,-0.74609 2.48999,-1.49011 3.72998,-2.24011c0.56799,-0.34106 1.14001,-0.68091 1.72003,-1.03003c20.79999,-12.5 20.79999,-12.5 22.59998,-13.59998c1.41003,-0.84705 2.82001,-1.69995 4.22998,-2.53992c7.14001,-4.29004 14.30005,-8.53003 21.5,-12.80005c6.09003,-3.59009 12.20001,-7.20996 18.20001,-10.90002c0.63202,-0.38 1.26001,-0.76099 1.91003,-1.15002c0.57599,-0.34692 1.14996,-0.69397 1.75,-1.04993c6.63,-3.99011 13.29999,-7.95007 20,-11.90002c4.94995,-2.90002 9.87,-5.84009 14.80005,-8.88c6.07996,-3.77002 12.29993,-7.34998 18.49988,-10.90002c6.82007,-3.92993 13.59998,-7.95996 20.30005,-12c3.21008,-1.93994 6.43005,-3.85999 9.65002,-5.78992c1.26001,-0.75403 2.51001,-1.51013 3.7699,-2.26013c8.42017,-5.04993 8.42017,-5.04993 10.80017,-6.5c1.85986,-1.11987 3.71997,-2.23987 5.58984,-3.35986c21,-12.59998 42.1001,-25.20007 63.30005,-37.40009c7.26001,-4.17999 14.5,-8.42999 21.6001,-12.89996c9.5199,-5.89001 19.19995,-11.59998 28.79993,-17.20001c6.44006,-3.78003 12.79993,-7.62 19.29993,-11.5c4.02014,-2.41998 8.05005,-4.83997 12.1001,-7.25c6.92004,-4.15002 6.92004,-4.15002 13.80005,-8.31c8.37988,-5.04004 16.79993,-10 25.19995,-15c6.79993,-4.01001 13.59998,-8.07001 20.40002,-12.09998c5.80994,-3.5 11.69995,-6.94006 17.5,-10.40002c15.59998,-9.16003 31.09998,-18.40002 46.59998,-27.70001c4.5,-2.71002 9.02002,-5.38995 13.59998,-8.03998c5.80005,-3.40002 11.59998,-6.82001 17.30005,-10.40002c5.23999,-3.25 10.5,-6.35999 15.8999,-9.44c0.80798,-0.466 1.62,-0.93298 2.45007,-1.40997c1.63,-0.94202 3.27002,-1.88 4.90002,-2.83002c23,-12.89996 23,-12.89996 43.3999,-29.40002l2.06006,-1.94995c10.40002,-11 14.79993,-25.5 15.59998,-40.20001c0.18799,-1.39001 0.18799,-1.39001 0.37903,-2.79999c0.66003,-0.33002 1.31995,-0.66003 2,-1c6.29993,21.29999 -5.64001,49.39996 -12.5,69.29999c-2.08008,6.17999 -3.81006,12.5 -5.58997,18.70001c-0.6571,2.32001 -1.32007,4.64001 -1.9801,6.95996c-1.12,3.92999 -2.22998,7.85004 -3.34998,11.79999c-4.53992,16 -9.09998,32 -13.90002,47.90002c-1.96997,6.5 -3.91992,13 -5.85999,19.5c-0.59595,1.98999 -1.18994,3.98999 -1.78992,5.98004c-3.76001,12.5 -7.44006,25.09998 -10.80005,37.79999c-2.06995,7.64996 -4.33997,15.19995 -6.68994,22.79993c-2.29004,7.40002 -4.42004,14.80005 -6.53003,22.30005c-0.65405,2.28992 -1.31006,4.57007 -1.96008,6.85999c-3.38989,11.80005 -6.75989,23.6001 -10,35.5c-4.87,17.6001 -10.29993,33.1001 -25,44.6001c-0.76294,0.6189 -1.52991,1.23999 -2.30994,1.87988c-8.70996,6.69995 -18.40002,12 -27.90002,17.50012c-4.18994,2.44983 -8.33997,4.94983 -12.5,7.45984c-8.02002,4.83008 -16.09998,9.61011 -24.09998,14.40015c-9.42004,5.56995 -18.80005,11.19995 -28.19995,16.79993c-2.6001,1.55994 -5.21008,3.13 -7.81006,4.69006c-1.25,0.75 -2.5,1.5 -3.75,2.25c-8.75,5.25 -8.75,5.25 -11,6.57996c-1.54993,0.93298 -3.10999,1.87 -4.65991,2.79993c-6.88,4.13013 -13.80005,8.21997 -20.70007,12.30005c-8.16003,4.83008 -16.29993,9.66992 -24.40002,14.59998c-11.40002,6.87012 -22.8999,13.59998 -34.40002,20.40002c-11.59998,6.81006 -23.09998,13.69995 -34.59998,20.59998c-7.91992,4.76001 -15.8999,9.47998 -23.80005,14.20007c-10.09985,6 -20.29993,12 -30.29993,18.09998c-5.57996,3.37 -11.19995,6.64001 -16.90002,9.89001c-6.58008,3.79004 -13.09998,7.65991 -19.5,11.69995c-7.72998,4.78003 -15.59998,9.39001 -23.3999,14c-0.94617,0.55908 -1.89001,1.12 -2.87012,1.68994c-4.82996,2.8501 -9.67004,5.71008 -14.5,8.56006c-11.39996,6.70996 -22.69995,13.5 -34.09998,20.30005c-1.64001,0.98694 -3.28998,1.96997 -4.92999,2.95996c-4.32001,2.59009 -8.63,5.19995 -12.90002,7.88c-7.87,4.85999 -15.89996,9.44006 -23.89996,14c-6.06,3.46997 -12,7.05994 -17.90002,10.79993c-4.52997,2.86011 -9.16998,5.52002 -13.79999,8.20007c-15.09998,8.73999 -30.09998,17.59998 -44.90002,26.79993c-9.98999,6.18005 -20.19995,12.1001 -30.39996,17.90015c-3.94,2.23999 -7.82001,4.52991 -11.60004,7c-7.38995,4.77991 -15,9.16992 -22.59998,13.59985c-5.15002,3.03003 -10.29999,6.1001 -15.40002,9.18005c-1.66998,1 -3.32996,2 -5,3c-0.83099,0.49902 -1.65997,0.99805 -2.51996,1.51001c-7.17004,4.29993 -7.17004,4.29993 -9.70001,5.82007c-1.97003,1.17993 -3.92999,2.37 -5.90002,3.54993c-62.89996,38 -62.89996,38 -95.70001,31.30005c-14.5,-3.62 -29.09998,-11.09998 -40.19995,-21.20007l0,-2l-1.71002,-0.64099c-3.04999,-1.80994 -4.84003,-4.29993 -6.91003,-7.10999c-0.43396,-0.578 -0.86792,-1.16003 -1.30994,-1.75c-1.36005,-1.82996 -2.71002,-3.65991 -4.06,-5.5c-0.41602,-0.56299 -0.83203,-1.13 -1.26001,-1.70996c-5.43005,-7.37 -10.50006,-14.90002 -15.40002,-22.59998c-3.95996,-6.18005 -8.08997,-12.20007 -12.29999,-18.30005c-4.15997,-6.05005 -8.25,-12.09998 -12.29999,-18.30005c-4.51001,-6.79004 -9.08002,-13.5 -13.70001,-20.19995c-3.39996,-4.91992 -6.70001,-9.91003 -10,-14.90002c-1.69,-2.53992 -3.37,-5.07996 -5.06,-7.62c-0.427,-0.64197 -0.854,-1.28003 -1.29004,-1.94995c-2.35992,-3.53003 -4.74994,-7.03003 -7.20996,-10.5c-3.18005,-4.5 -6.14001,-9.12012 -9.09998,-13.80005c-2.72003,-4.25 -5.54999,-8.38989 -8.47003,-12.5c-2.26996,-3.26001 -4.48004,-6.55005 -6.67999,-9.85999c-0.42798,-0.64294 -0.85504,-1.28992 -1.29999,-1.95007c-1.69006,-2.54993 -3.38004,-5.09985 -5.07001,-7.6499c-5.38,-8.11011 -10.80002,-16.20007 -16.30002,-24.20007c-5.44,-7.95996 -10.79999,-16 -16.20001,-24c-2.64999,-3.98987 -5.29999,-7.95996 -7.95999,-11.90002c-3.85999,-5.78992 -7.72998,-11.59985 -11.59998,-17.3999c-0.70502,-1.06006 -1.41003,-2.12 -2.14001,-3.20996c-1.35999,-2.04004 -2.70999,-4.08008 -4.06,-6.11011c-2.91,-4.38 -5.85001,-8.72998 -8.88,-13c-5.56,-7.88989 -10.79999,-16 -16.19998,-24c-4.96002,-7.46997 -9.93002,-14.8999 -15.10001,-22.29993c-1.98999,-2.84009 -3.91,-5.72009 -5.82001,-8.60999c-4.64999,-7.02002 -9.38,-14 -14.10001,-20.90002c-5.10001,-7.4801 -10.19998,-15 -15.19998,-22.5c-2.54001,-3.81995 -5.13,-7.58997 -7.76001,-11.29993c-4.01001,-5.76001 -7.82001,-11.6001 -11.60001,-17.5c-3,-4.66003 -6.09,-9.2301 -9.30002,-13.70007c-2.89996,-4.13 -5.66998,-8.34998 -8.45999,-12.59998c-2.34998,-3.54004 -4.70999,-7.07996 -7.06998,-10.59998c-1.04001,-1.56006 -2.08002,-3.12 -3.12,-4.69006c-0.50803,-0.76196 -1.02002,-1.52002 -1.54001,-2.30994c-3.95999,-5.94006 -3.95999,-5.94006 -5.14999,-7.7301c-0.79303,-1.18994 -1.59003,-2.37988 -2.38,-3.56995c-2.42999,-3.64001 -4.85001,-7.29004 -7.28,-10.90002c-5.71002,-8.58997 -11.40002,-17.19995 -17.30002,-25.59998c-4.94,-7.16003 -9.73999,-14.40002 -14.5,-21.70001c-4.22,-6.34003 -8.48999,-12.60004 -12.79999,-18.90002c-3.38,-4.88 -6.64999,-9.83997 -9.92999,-14.79999c-1.58002,-2.38 -3.17001,-4.75 -4.75002,-7.12c-0.85201,-1.27997 -1.7,-2.54999 -2.55,-3.82996c-0.43799,-0.65704 -0.87599,-1.31 -1.33,-1.99005c-4.25,-6.37994 -4.25,-6.37994 -5.73999,-8.59998c-1.01001,-1.52002 -2.02,-3.03998 -3.04001,-4.55005c-2.5,-3.75 -5,-7.50995 -7.5,-11.29999c-6.17,-9.28998 -12.39999,-18.5 -18.7,-27.70001c-3.47,-5.08997 -6.89,-10.19995 -10.2,-15.39996c-3.36,-5.29999 -6.93001,-10.40002 -10.60001,-15.5c-2.98999,-4.15002 -5.76999,-8.38 -8.46999,-12.70001c-1.76001,-2.75 -3.57001,-5.46002 -5.41,-8.15997c-6.63,-9.73999 -13.10001,-19.30005 -17.7,-30.09998c-0.356,-0.79401 -0.71201,-1.59003 -1.08,-2.41003c-5.66,-15 -1.25,-31.5 3.09,-46.20001c1.09,-3.72998 2.14,-7.47003 3.17999,-11.20001c2.70001,-9.70996 5.44,-19.40002 8.22,-29.09998c3.28001,-11.5 6.52,-22.90002 9.71001,-34.40002c3.69,-13.29999 7.39,-26.5 11.2,-39.79999c5.37,-18.70001 10.60001,-37.5 15.7,-56.29999c2.99001,-11 6.09001,-22 9.25,-33c1.78,-6.20001 3.5,-12.40002 5.11,-18.70001c2.21001,-8.53998 4.57001,-17 6.96001,-25.5c0.43599,-1.54999 0.869,-3.09003 1.3,-4.64001c6.07999,-21.79999 6.07999,-21.79999 11.39999,-29.79999l2,0c0.464,-1.20999 0.464,-1.20999 0.938,-2.44c1.06,-2.56 1.06,-2.56 2.06,-3.56l-0.287,0.35791z"/>
  <path id="svg_4" fill="#ffff" d="m1065,344c6.57996,4.54001 10.80005,11.79999 15,18.39999c4.30005,6.52002 8.65002,13 13.19995,19.39999c2.52002,3.59003 5.02002,7.20001 7.51001,10.80002c2.29004,3.29999 4.59009,6.60001 6.90002,9.88c2.39001,3.39999 4.70996,6.84 7,10.29999c5.41003,8.14999 11.09998,16.10001 16.70007,24.10001c2.91992,4.16 5.82996,8.32001 8.75,12.5c1.16992,1.66998 2.32996,3.32999 3.49988,5c7,10 7,10 8.75012,12.5c1.15991,1.66 2.32996,3.31 3.49988,4.95999c14.90002,21 14.90002,21 13.20007,33.5c-3.62,8.49002 -10.5,12.10001 -18.09998,16.80002c-1.16003,0.71002 -2.32007,1.41998 -3.47998,2.13c-0.58203,0.35596 -1.16003,0.71198 -1.76001,1.07996c-1.56006,0.95502 -3.11011,1.92004 -4.66003,2.88c-7.91003,4.91003 -15.90002,9.64001 -23.90002,14.40002c-6.16003,3.63 -12.29993,7.32001 -18.40002,11.09998c-3.39001,2.09003 -6.79993,4.15002 -10.19995,6.19c-6.17004,3.69 -12.30005,7.39001 -18.5,11.10004c-36.30005,21.89996 -36.30005,21.89996 -50,20.39996c-11.10004,-3.81 -18.29999,-17.59998 -24.09998,-27.09998c-2.19006,-3.38 -4.54004,-6.60999 -6.95001,-9.84998c-9.20001,-12.40002 -17.90002,-25.10004 -26.60004,-37.90002c-4.35999,-6.41 -8.82001,-12.70001 -13.39996,-18.90002c-3.73004,-5.00998 -7.29999,-10.09998 -10.90002,-15.19998c-1.16998,-1.67001 -2.33002,-3.32999 -3.5,-5c-7,-10 -7,-10 -8.72998,-12.5c-1.22998,-1.75 -2.45001,-3.5 -3.67999,-5.23999c-0.93005,-1.32001 -0.93005,-1.32001 -1.88,-2.67001c-0.56,-0.79401 -1.12,-1.59 -1.70001,-2.41c-2.04004,-2.98999 -3.82001,-6.00998 -5.51001,-9.20999c-0.43298,-0.784 -0.86603,-1.57001 -1.31,-2.38c-1.25,-4.78 -0.75598,-9.32001 1.32001,-13.79999c8.02997,-13.40002 23.5,-20 36.59998,-27.60001c5.15002,-3.03 10.29999,-6.10001 15.40002,-9.17999c1.54999,-0.93002 3.09998,-1.86002 4.64996,-2.79001c2.44006,-1.47 4.88,-2.92999 7.33002,-4.39999c4.34003,-2.61002 8.67999,-5.20999 13,-7.80002c8.61005,-5.13998 17.20001,-10.29999 25.70001,-15.60001c38.30005,-23.69998 38.30005,-23.69998 49.30005,-17.79999l-0.05005,-0.09z"/>
  <path id="svg_5" fill="#ffff" d="m661,585c8.14001,5.78998 13.09998,14.79999 18.5,23c2.20001,3.33002 4.45001,6.62 6.71002,9.90002c0.67896,0.987 0.67896,0.987 1.37,1.98999c3.44,4.98999 6.94,9.94 10.39996,14.89996c4.01001,5.66003 7.92999,11.40002 11.79999,17.20001c4.27002,6.42004 8.67004,12.70001 13.10004,19.10004c0.41498,0.60095 0.82898,1.19995 1.26001,1.82001c3.69,5.33997 7.38995,10.69995 11.09998,16c3.48999,4.96997 6.92004,9.98999 10.40002,15c3.15997,4.59998 6.38,9.14996 9.64996,13.69995c10.20001,14.30005 10.20001,14.30005 10.60004,19.5c0.10297,1.26001 0.20599,2.52002 0.31201,3.81c-0.10303,5.47003 -2.13,9.78003 -5.79004,13.79999c-3.87,3.51001 -8.23999,6.14001 -12.70001,8.76001c-3,1.73999 -5.94995,3.55005 -8.90997,5.37006c-1.09003,0.67395 -2.19,1.34998 -3.32001,2.03998c-2.51001,1.56 -5.02002,3.12 -7.52002,4.69995c-7.92999,4.99005 -15.89996,9.83002 -24,14.50006c-10.89996,6.32996 -21.59998,12.79999 -32.29999,19.39996c-9.66998,6.03998 -19.39996,12 -29.20001,17.79999c-0.78296,0.45703 -1.56995,0.91504 -2.37,1.39001c-7.52997,4.35004 -13.29999,6.51001 -22.09998,5.42999c-9.37,-2.52997 -14.70001,-11.5 -20,-19c-0.40802,-0.56897 -0.81598,-1.14001 -1.23999,-1.71997c-3.97003,-5.57001 -7.75,-11.29999 -11.5,-17c-3.91998,-5.91998 -8.08002,-11.70001 -12.29999,-17.40002c-3.57001,-4.91998 -7.07001,-9.89001 -10.5,-14.89996c-3.81006,-5.59003 -7.71002,-11.10004 -11.70001,-16.60004c-6.39001,-8.79999 -12.60004,-17.70001 -18.79999,-26.70001c-2.64001,-3.81 -5.29004,-7.59998 -7.97003,-11.39996c-0.62897,-0.89001 -1.26001,-1.78003 -1.90997,-2.70001c-1.18005,-1.65997 -2.35004,-3.32001 -3.54004,-4.97998c-11.69998,-16.5 -11.69998,-16.5 -10.59998,-24.70001c2.84998,-8.76001 7.28003,-14.20001 15,-19c0.84698,-0.52698 0.84698,-0.52698 1.70996,-1.07001c3.82007,-2.35999 7.68005,-4.66003 11.60004,-6.91998c2.26001,-1.32001 4.5,-2.67004 6.72998,-4.02002c0.789,-0.47302 1.58002,-0.94598 2.39001,-1.42999c1.92999,-1.16003 3.84998,-2.32001 5.77997,-3.47998c8.60004,-5.18005 17.20001,-10.30005 25.90002,-15.40002c11.70001,-6.84003 11.70001,-6.84003 23.09998,-14c4.48004,-2.87 9,-5.64001 13.60004,-8.38c0.61401,-0.36798 1.22998,-0.737 1.85999,-1.12c2.96002,-1.77002 5.92999,-3.51001 8.94,-5.21002c4.47003,-2.57001 8.81,-5.32996 13.20001,-8.07996c7.89001,-4.57001 14.59998,-6.68005 23.5,-3.90002l-0.242,0z"/>
  <path id="svg_6" fill="#ffff" d="m1070,739c4.58997,2.98999 7.54004,7.28998 9.25,12.40002c0.646,7.14996 0.80701,14.19995 -4,20c-0.68604,0.33795 -1.37,0.67499 -2.07996,1.01996c-2.28003,0.87402 -2.28003,0.87402 -2.92004,3.98004c-1.73999,1.31995 -1.73999,1.31995 -4.02002,2.63995c-0.83203,0.48999 -1.66003,0.98102 -2.52002,1.48999c-0.89502,0.51605 -1.78992,1.03003 -2.70996,1.56006c-1.84998,1.08997 -3.69995,2.16998 -5.55005,3.25995c-0.8999,0.526 -1.79993,1.05005 -2.72998,1.60004c-3.02002,1.77997 -6,3.60999 -8.96997,5.45996c-9.65002,5.97003 -19.40002,11.80005 -29.09998,17.60004c-4.39001,2.63 -8.77002,5.27997 -13.10004,7.98999c-5.87,3.62 -11.79999,7.13 -17.79999,10.59998c-8.42999,4.95001 -16.79999,10 -25.09998,15.20001c-5.27002,3.28003 -10.60004,6.53998 -15.90002,9.73999c-0.58502,0.354 -1.16998,0.70801 -1.77002,1.07001c-8.33997,5 -14,6.84003 -23.79999,5.80005c-10.09998,-2.63007 -15.40002,-12.40002 -20.70001,-20.5c-2.62994,-4.01001 -5.39996,-7.93005 -8.16998,-11.80005c-0.76398,-1.07996 -0.76398,-1.07996 -1.53998,-2.19c-2.46002,-3.46997 -4.92999,-6.91998 -7.43005,-10.39996c-12,-16.5 -12,-16.5 -11.59998,-25.60004c0.95502,-5.39996 3.46002,-8.82001 7.64001,-12.29999c5.79999,-3.90997 10.89996,-5.51001 17.79999,-4.16998c8.31,3.38 12.90002,10.39996 17.90002,17.59998c5.14996,7.17999 10.59998,13.20001 19.59998,14.90002c14.20001,0.76099 26.29999,-8.77002 37.70001,-16.10004c4.20001,-2.69 8.5,-5.17999 12.79999,-7.65997c4.32001,-2.53003 8.58002,-5.16998 12.79999,-7.79999c5.15002,-3.17999 10.29999,-6.28003 15.60004,-9.37c4.28998,-2.56 8.52997,-5.16003 12.69995,-7.86005c9.71002,-6.20996 19.60004,-12.29999 29.79999,-17.69995c0.82507,-0.43304 1.65002,-0.86603 2.5,-1.31c5.20007,-1.43005 10.40002,-1.61005 15.20007,0.875l0.21997,-0.02502z"/>
  <path d="m58.18642,1491.80359c0,0 0,0 0,0c0,0 0,0 0,0c0,0 0,0 0,0l0,0l0,0l0,0" id="svg_7" fill-opacity="0" fill="none"/>
  <path d="m241.55605,1383.44873c0,0 0,0 0,0c0,0 0,0 0,0c0,0 0,0 0,0c0,0 0,0 0,0l0,0l0,0" id="svg_8" fill-opacity="0" fill="none"/>
 </g>
</svg>